<svg width="27" height="27" viewBox="0 0 27 27" fill="none" xmlns="http://www.w3.org/2000/svg">
<path fill-rule="evenodd" clip-rule="evenodd" d="M8.02799 2.43881C4.57066 2.43881 2.66666 4.28281 2.66666 7.63081V19.6961C2.66666 23.1175 4.57066 25.0001 8.02799 25.0001H19.3053C22.7627 25.0001 24.6667 23.1521 24.6667 19.7975V7.63081C24.672 5.98415 24.2293 4.70415 23.3507 3.82415C22.4467 2.91748 21.0533 2.43881 19.3173 2.43881H8.02799ZM19.3053 27.0001H8.02799C3.48799 27.0001 0.666656 24.2015 0.666656 19.6961V7.63081C0.666656 3.19348 3.48799 0.438812 8.02799 0.438812H19.3173C21.596 0.438812 23.48 1.12148 24.7667 2.41081C26.016 3.66548 26.6733 5.46948 26.6667 7.63348V19.7975C26.6667 24.2401 23.8453 27.0001 19.3053 27.0001Z" fill="#8456EC"/>
</svg>
